<svg xmlns="http://www.w3.org/2000/svg" width="1944" height="1088.64" viewBox="0 931.68 1944 1088.64" fill = "#FF4081" enable-background="new 0 931.68 1944 1088.64"><g><circle cx="1477.44" cy="1389.6" r="34.56"/><circle cx="1477.44" cy="1709.28" r="34.56"/><circle cx="665.28" cy="1778.4" r="34.56"/><circle cx="1270.08" cy="1242.72" r="34.56"/><circle cx="1088.64" cy="1173.6" r="34.56"/><circle cx="457.92" cy="1614.24" r="34.56"/><circle cx="1270.08" cy="1579.68" r="34.56"/><circle cx="561.6" cy="1406.88" r="34.56"/><path d="M618.624 1791.36l400.896-191.808-591.84 25.056 380.16-266.112-244.512 57.024-5.184-16.416 527.04-233.28 8.64 14.688-201.312 140.832 380.16-88.128 3.456 2.592 219.456 155.52-390.528 187.488 168.48-6.912 2.592 1.728 228.96 143.424-886.464 74.304zm444.96-194.4l-351.648 168.48 739.584-63.072-184.032-114.048-203.904 8.64zm-209.088-248.832l-367.2 256.608 572.832-24.192 400.032-192.672-191.808-136.512-413.856 96.768zm156.384-130.464l-362.016 159.84 198.72-45.792 163.296-114.048z"/></g></svg>